<svg width="1110" height="309" viewBox="0 0 1110 309" fill="none" xmlns="http://www.w3.org/2000/svg">
<rect width="1110" height="309" rx="33" fill="#FE0000"/>
<path d="M324.08 177C323.611 177 323.227 176.851 322.928 176.552C322.629 176.253 322.48 175.869 322.48 175.4V133.8C322.48 133.331 322.629 132.947 322.928 132.648C323.227 132.349 323.611 132.2 324.08 132.2H340.72C344.901 132.2 348.464 132.883 351.408 134.248C354.352 135.571 356.613 137.533 358.192 140.136C359.771 142.696 360.624 145.875 360.752 149.672C360.795 151.549 360.816 153.192 360.816 154.6C360.816 156.008 360.795 157.629 360.752 159.464C360.581 163.432 359.728 166.717 358.192 169.32C356.699 171.923 354.501 173.864 351.6 175.144C348.741 176.381 345.221 177 341.04 177H324.08ZM333.936 167.784H340.72C342.555 167.784 344.069 167.507 345.264 166.952C346.501 166.355 347.419 165.437 348.016 164.2C348.656 162.963 348.997 161.341 349.04 159.336C349.125 158.099 349.168 156.989 349.168 156.008C349.211 155.027 349.211 154.045 349.168 153.064C349.168 152.083 349.125 150.995 349.04 149.8C348.955 146.899 348.187 144.787 346.736 143.464C345.328 142.099 343.216 141.416 340.4 141.416H333.936V167.784ZM386.597 177.64C382.671 177.64 379.258 177 376.357 175.72C373.455 174.44 371.194 172.52 369.573 169.96C367.951 167.357 367.055 164.115 366.885 160.232C366.842 158.397 366.821 156.563 366.821 154.728C366.821 152.893 366.842 151.037 366.885 149.16C367.055 145.32 367.951 142.099 369.573 139.496C371.237 136.851 373.519 134.867 376.421 133.544C379.322 132.221 382.714 131.56 386.597 131.56C390.437 131.56 393.807 132.221 396.708 133.544C399.653 134.867 401.957 136.851 403.621 139.496C405.285 142.099 406.181 145.32 406.309 149.16C406.394 151.037 406.437 152.893 406.437 154.728C406.437 156.563 406.394 158.397 406.309 160.232C406.138 164.115 405.242 167.357 403.621 169.96C401.999 172.52 399.738 174.44 396.837 175.72C393.935 177 390.522 177.64 386.597 177.64ZM386.597 168.424C388.858 168.424 390.693 167.741 392.101 166.376C393.551 165.011 394.319 162.835 394.405 159.848C394.49 157.971 394.533 156.2 394.533 154.536C394.533 152.872 394.49 151.144 394.405 149.352C394.319 147.347 393.935 145.725 393.253 144.488C392.613 143.208 391.717 142.269 390.565 141.672C389.413 141.075 388.09 140.776 386.597 140.776C385.146 140.776 383.845 141.075 382.693 141.672C381.541 142.269 380.623 143.208 379.941 144.488C379.258 145.725 378.874 147.347 378.789 149.352C378.746 151.144 378.725 152.872 378.725 154.536C378.725 156.2 378.746 157.971 378.789 159.848C378.917 162.835 379.685 165.011 381.093 166.376C382.501 167.741 384.335 168.424 386.597 168.424ZM415.455 177C414.986 177 414.602 176.851 414.303 176.552C414.004 176.253 413.855 175.869 413.855 175.4V133.8C413.855 133.331 414.004 132.947 414.303 132.648C414.602 132.349 414.986 132.2 415.455 132.2H423.519C423.988 132.2 424.372 132.349 424.671 132.648C424.97 132.947 425.119 133.331 425.119 133.8V148.008L436.959 133.416C437.13 133.16 437.407 132.904 437.791 132.648C438.218 132.349 438.772 132.2 439.455 132.2H448.671C449.055 132.2 449.375 132.349 449.631 132.648C449.887 132.904 450.015 133.203 450.015 133.544C450.015 133.843 449.93 134.099 449.759 134.312L434.463 153.64L450.975 174.888C451.146 175.059 451.231 175.315 451.231 175.656C451.231 175.997 451.082 176.317 450.783 176.616C450.527 176.872 450.228 177 449.887 177H440.351C439.583 177 438.986 176.829 438.559 176.488C438.175 176.147 437.919 175.891 437.791 175.72L425.119 159.912V175.4C425.119 175.869 424.97 176.253 424.671 176.552C424.372 176.851 423.988 177 423.519 177H415.455ZM474.732 177.64C470.892 177.64 467.521 177.021 464.62 175.784C461.761 174.504 459.543 172.563 457.964 169.96C456.385 167.315 455.596 163.965 455.596 159.912V133.8C455.596 133.331 455.745 132.947 456.044 132.648C456.343 132.349 456.727 132.2 457.196 132.2H465.452C465.921 132.2 466.305 132.349 466.604 132.648C466.903 132.947 467.052 133.331 467.052 133.8V159.848C467.052 162.621 467.713 164.712 469.036 166.12C470.401 167.485 472.3 168.168 474.732 168.168C477.121 168.168 478.977 167.485 480.3 166.12C481.665 164.712 482.348 162.621 482.348 159.848V133.8C482.348 133.331 482.497 132.947 482.796 132.648C483.137 132.349 483.521 132.2 483.948 132.2H492.268C492.695 132.2 493.057 132.349 493.356 132.648C493.697 132.947 493.868 133.331 493.868 133.8V159.912C493.868 163.965 493.079 167.315 491.5 169.96C489.921 172.563 487.703 174.504 484.844 175.784C481.985 177.021 478.615 177.64 474.732 177.64ZM503.955 177C503.528 177 503.144 176.851 502.803 176.552C502.504 176.253 502.355 175.869 502.355 175.4V133.8C502.355 133.331 502.504 132.947 502.803 132.648C503.144 132.349 503.528 132.2 503.955 132.2H510.867C511.55 132.2 512.062 132.392 512.403 132.776C512.787 133.117 513.022 133.395 513.107 133.608L524.371 153.832L535.635 133.608C535.763 133.395 535.976 133.117 536.275 132.776C536.616 132.392 537.15 132.2 537.875 132.2H544.723C545.192 132.2 545.576 132.349 545.875 132.648C546.216 132.947 546.387 133.331 546.387 133.8V175.4C546.387 175.869 546.216 176.253 545.875 176.552C545.576 176.851 545.192 177 544.723 177H537.107C536.638 177 536.232 176.851 535.891 176.552C535.592 176.253 535.443 175.869 535.443 175.4V151.4L528.211 164.776C528.04 165.16 527.784 165.501 527.443 165.8C527.102 166.099 526.632 166.248 526.035 166.248H522.707C522.11 166.248 521.64 166.099 521.299 165.8C520.958 165.501 520.68 165.16 520.467 164.776L513.235 151.4V175.4C513.235 175.869 513.086 176.253 512.787 176.552C512.488 176.851 512.104 177 511.635 177H503.955ZM556.893 177C556.423 177 556.039 176.851 555.741 176.552C555.442 176.253 555.293 175.869 555.293 175.4V133.8C555.293 133.331 555.442 132.947 555.741 132.648C556.039 132.349 556.423 132.2 556.893 132.2H586.781C587.25 132.2 587.634 132.349 587.933 132.648C588.231 132.947 588.381 133.331 588.381 133.8V139.816C588.381 140.285 588.231 140.669 587.933 140.968C587.634 141.267 587.25 141.416 586.781 141.416H566.365V150.056H585.373C585.842 150.056 586.226 150.227 586.525 150.568C586.823 150.867 586.972 151.251 586.972 151.72V157.288C586.972 157.715 586.823 158.099 586.525 158.44C586.226 158.739 585.842 158.888 585.373 158.888H566.365V167.784H587.293C587.762 167.784 588.146 167.933 588.444 168.232C588.743 168.531 588.893 168.915 588.893 169.384V175.4C588.893 175.869 588.743 176.253 588.444 176.552C588.146 176.851 587.762 177 587.293 177H556.893ZM597.768 177C597.298 177 596.914 176.851 596.616 176.552C596.317 176.253 596.168 175.869 596.168 175.4V133.8C596.168 133.331 596.317 132.947 596.616 132.648C596.914 132.349 597.298 132.2 597.768 132.2H604.552C605.277 132.2 605.789 132.371 606.088 132.712C606.429 133.011 606.642 133.245 606.728 133.416L622.344 158.056V133.8C622.344 133.331 622.493 132.947 622.792 132.648C623.09 132.349 623.474 132.2 623.944 132.2H631.624C632.093 132.2 632.477 132.349 632.776 132.648C633.074 132.947 633.224 133.331 633.224 133.8V175.4C633.224 175.827 633.074 176.211 632.776 176.552C632.477 176.851 632.093 177 631.624 177H624.776C624.093 177 623.581 176.829 623.24 176.488C622.941 176.147 622.749 175.912 622.664 175.784L607.048 152.104V175.4C607.048 175.869 606.898 176.253 606.6 176.552C606.301 176.851 605.917 177 605.448 177H597.768ZM653.624 177C653.154 177 652.77 176.851 652.472 176.552C652.173 176.253 652.024 175.869 652.024 175.4V142.248H640.632C640.162 142.248 639.778 142.099 639.48 141.8C639.181 141.459 639.032 141.075 639.032 140.648V133.8C639.032 133.331 639.181 132.947 639.48 132.648C639.778 132.349 640.162 132.2 640.632 132.2H675.064C675.533 132.2 675.917 132.349 676.216 132.648C676.514 132.947 676.664 133.331 676.664 133.8V140.648C676.664 141.075 676.514 141.459 676.216 141.8C675.917 142.099 675.533 142.248 675.064 142.248H663.672V175.4C663.672 175.869 663.522 176.253 663.224 176.552C662.925 176.851 662.541 177 662.072 177H653.624ZM675.358 177C675.016 177 674.696 176.872 674.398 176.616C674.142 176.317 674.014 175.997 674.014 175.656C674.014 175.443 674.035 175.251 674.078 175.08L689.118 133.992C689.246 133.523 689.502 133.117 689.885 132.776C690.312 132.392 690.888 132.2 691.614 132.2H701.086C701.811 132.2 702.366 132.392 702.75 132.776C703.176 133.117 703.454 133.523 703.582 133.992L718.558 175.08C718.643 175.251 718.686 175.443 718.686 175.656C718.686 175.997 718.536 176.317 718.238 176.616C717.982 176.872 717.662 177 717.278 177H709.406C708.766 177 708.275 176.851 707.934 176.552C707.635 176.211 707.443 175.912 707.358 175.656L704.862 169.128H687.774L685.342 175.656C685.256 175.912 685.064 176.211 684.766 176.552C684.467 176.851 683.955 177 683.23 177H675.358ZM690.398 159.912H702.302L696.286 143.016L690.398 159.912ZM739.747 177.64C735.48 177.64 731.939 177.043 729.123 175.848C726.307 174.611 724.173 173.011 722.723 171.048C721.272 169.085 720.504 166.995 720.419 164.776C720.419 164.435 720.547 164.136 720.803 163.88C721.101 163.581 721.443 163.432 721.827 163.432H729.891C730.488 163.432 730.936 163.539 731.235 163.752C731.576 163.965 731.875 164.243 732.131 164.584C732.472 165.224 732.941 165.843 733.539 166.44C734.179 167.037 734.989 167.528 735.971 167.912C736.995 168.253 738.253 168.424 739.747 168.424C742.221 168.424 744.077 168.04 745.315 167.272C746.595 166.504 747.235 165.459 747.235 164.136C747.235 163.197 746.893 162.429 746.211 161.832C745.528 161.192 744.419 160.637 742.883 160.168C741.389 159.656 739.384 159.144 736.867 158.632C733.624 157.949 730.851 157.075 728.547 156.008C726.285 154.899 724.557 153.469 723.363 151.72C722.168 149.928 721.571 147.709 721.571 145.064C721.571 142.461 722.296 140.136 723.747 138.088C725.24 136.04 727.309 134.44 729.955 133.288C732.6 132.136 735.736 131.56 739.363 131.56C742.307 131.56 744.888 131.944 747.107 132.712C749.368 133.48 751.267 134.504 752.803 135.784C754.339 137.064 755.491 138.429 756.259 139.88C757.069 141.288 757.496 142.675 757.539 144.04C757.539 144.381 757.411 144.701 757.155 145C756.899 145.256 756.579 145.384 756.194 145.384H747.747C747.277 145.384 746.872 145.299 746.531 145.128C746.189 144.957 745.891 144.68 745.635 144.296C745.379 143.357 744.696 142.547 743.587 141.864C742.52 141.139 741.112 140.776 739.363 140.776C737.485 140.776 736.013 141.117 734.947 141.8C733.923 142.44 733.411 143.443 733.411 144.808C733.411 145.661 733.688 146.408 734.243 147.048C734.84 147.688 735.8 148.243 737.123 148.712C738.488 149.181 740.344 149.672 742.691 150.184C746.573 150.909 749.709 151.827 752.099 152.936C754.488 154.003 756.237 155.411 757.347 157.16C758.456 158.867 759.011 161.021 759.011 163.624C759.011 166.525 758.179 169.043 756.515 171.176C754.893 173.267 752.632 174.867 749.731 175.976C746.829 177.085 743.501 177.64 739.747 177.64ZM767.018 177C766.548 177 766.164 176.851 765.866 176.552C765.567 176.253 765.418 175.869 765.418 175.4V133.8C765.418 133.331 765.567 132.947 765.866 132.648C766.164 132.349 766.548 132.2 767.018 132.2H775.594C776.063 132.2 776.447 132.349 776.746 132.648C777.044 132.947 777.194 133.331 777.194 133.8V175.4C777.194 175.869 777.044 176.253 776.746 176.552C776.447 176.851 776.063 177 775.594 177H767.018Z" fill="#FEFEFE"/>
</svg>
